<svg width="158" height="32" viewBox="0 0 700 159" fill="none" xmlns="http://www.w3.org/2000/svg">
<path fill-rule="evenodd" clip-rule="evenodd" d="M0.162106 79.2581C0.162106 122.888 35.5306 158.257 79.1609 158.257C122.791 158.257 158.162 122.888 158.162 79.2581C158.162 35.6278 122.791 0.259277 79.1609 0.259277C35.5306 0.259277 0.162106 35.6278 0.162106 79.2581Z" fill="#0C0C4F"/>
<path fill-rule="evenodd" clip-rule="evenodd" d="M44.3163 60.6469L46.2664 54.622C46.6628 53.3967 47.6299 52.4431 48.8598 52.0671L54.9141 50.2053C55.7521 49.9494 55.7589 48.7671 54.9277 48.4975L48.9006 46.5474C47.6775 46.151 46.7239 45.1839 46.3457 43.954L44.4861 37.8997C44.2302 37.064 43.0479 37.0549 42.7783 37.8884L40.8282 43.9132C40.4318 45.1363 39.4647 46.0899 38.2348 46.4681L32.1805 48.3277C31.3425 48.5859 31.3334 49.7659 32.1669 50.0355L38.194 51.9856C39.4171 52.382 40.3707 53.3514 40.7489 54.5813L42.6085 60.6333C42.8644 61.4713 44.0467 61.4804 44.3163 60.6469Z" fill="#FAFAFA"/>
<path fill-rule="evenodd" clip-rule="evenodd" d="M140.01 57.1403C137.515 54.3493 133.619 52.7779 129.832 52.1335C126.015 51.5145 122.012 51.572 118.244 52.2415C110.619 53.5313 103.692 56.6885 97.6502 60.5834C94.5127 62.4949 91.8371 64.7067 89.0651 66.9593C87.7295 68.0985 86.5118 69.3116 85.2436 70.5075L81.7784 73.9552C78.0132 77.891 74.3019 81.4758 70.7111 84.4471C67.1058 87.4047 63.7351 89.651 60.4133 91.2196C57.0936 92.7964 53.5415 93.7237 48.9116 93.8722C44.3224 94.034 38.8928 93.2058 33.085 91.8387C27.246 90.4775 21.1144 88.5374 14.2625 86.8681C16.6533 93.5007 20.2535 99.362 24.8758 104.72C29.5523 109.985 35.3919 114.784 42.8935 117.939C50.2868 121.165 59.5778 122.323 68.2652 120.576C76.9756 118.9 84.6194 114.869 90.798 110.208C96.9925 105.498 102.004 100.134 106.229 94.5573C107.395 93.0165 108.012 92.1541 108.856 90.9499L111.189 87.4944C112.81 85.357 114.286 82.9234 115.891 80.8056C119.037 76.3704 122.138 71.9404 125.742 67.859C127.556 65.7888 129.469 63.8088 131.727 61.9059C132.854 60.977 134.07 60.0681 135.418 59.2493C136.786 58.3661 138.231 57.6748 140.01 57.1403Z" fill="url(#paint0_linear_1_52)"/>
<path fill-rule="evenodd" clip-rule="evenodd" d="M140.01 57.14C137.329 50.3741 132.344 44.6787 125.654 40.476C119.003 36.3194 109.767 34.1981 100.615 36.0064C96.0929 36.8808 91.7122 38.5644 87.8681 40.8065C84.0412 43.0396 80.612 45.7278 77.6433 48.6117C76.1613 50.0585 74.8161 51.5677 73.4797 53.0855L70.0159 57.5016L64.666 64.6105C57.8457 73.7568 50.5012 84.4759 38.4484 87.652C26.6161 90.7701 21.4842 88.0086 14.2625 86.8678C15.583 90.2769 17.2186 93.5877 19.4361 96.5002C21.6122 99.4717 24.1825 102.263 27.3781 104.655C28.993 105.804 30.698 106.938 32.5917 107.9C34.4767 108.829 36.5095 109.647 38.6793 110.263C42.9953 111.446 47.8544 111.86 52.5591 111.224C57.266 110.596 61.765 109.104 65.6976 107.123C69.6592 105.16 73.1102 102.771 76.1917 100.248C82.3172 95.1614 87.0818 89.5408 91.1065 83.8593C93.1309 81.0187 94.9685 78.1245 96.668 75.2295L98.6683 71.7829C99.2798 70.7754 99.8984 69.7617 100.527 68.8176C103.061 65.0247 105.54 61.9834 108.551 59.7006C111.52 57.3588 115.655 55.6286 121.18 55.2266C126.682 54.8198 133.034 55.5712 140.01 57.14Z" fill="#FAFAFA"/>
<path fill-rule="evenodd" clip-rule="evenodd" d="M110.243 113.356C110.243 118.326 114.274 122.356 119.243 122.356C124.213 122.356 128.238 118.326 128.238 113.356C128.238 108.387 124.213 104.356 119.243 104.356C114.274 104.356 110.243 108.387 110.243 113.356Z" fill="url(#paint1_linear_1_52)"/>
<path d="M690.596 57.1682V48.0806C690.596 47.7203 690.304 47.4282 689.944 47.4282H638.164C637.804 47.4282 637.512 47.7203 637.512 48.0806V57.1682H658.556V115.958H669.551V57.1682H690.596Z" fill="#0C0C4F"/>
<path d="M583.395 47.4282C583.034 47.4282 582.742 47.7203 582.742 48.0806V115.306C582.742 115.666 583.034 115.958 583.395 115.958H626.969C627.329 115.958 627.621 115.666 627.621 115.306V106.315H593.737V84.7773H621.732V75.3269H593.737V57.0716H625.208V48.0806C625.208 47.7203 624.916 47.4282 624.555 47.4282H583.395Z" fill="#0C0C4F"/>
<path d="M558.127 115.559L558.364 115.958H566.81C567.171 115.958 567.463 115.666 567.463 115.306V48.0806C567.463 47.7203 567.171 47.4282 566.81 47.4282H556.661V94.8889C554.899 92.0835 552.853 88.9954 550.523 85.6251C547.556 81.2388 544.364 76.7893 540.947 72.2766C537.595 67.6996 534.178 63.2831 530.696 59.0271C527.275 54.7034 524.044 50.9221 521.001 47.6852L520.76 47.4282H512.811C512.45 47.4282 512.158 47.7203 512.158 48.0806V115.306C512.158 115.666 512.45 115.958 512.811 115.958H522.96V65.1153C524.348 66.7542 525.825 68.5704 527.392 70.5645C529.509 73.259 531.691 76.1472 533.939 79.2293L533.941 79.2326L533.944 79.2359C536.189 82.2518 538.436 85.3967 540.683 88.6707L540.686 88.6752L540.689 88.6796C543.001 91.9551 545.216 95.1981 547.335 98.4086L547.337 98.4118L547.34 98.4149C549.457 101.559 551.413 104.605 553.208 107.554L553.211 107.56L553.215 107.565C555.078 110.521 556.716 113.186 558.127 115.559Z" fill="#0C0C4F"/>
<path d="M498.878 48.7932L499.127 48.5202C499.509 48.1013 499.212 47.4282 498.645 47.4282H486.607L486.363 47.7112C484.765 49.5648 482.78 51.7429 480.404 54.2468L480.404 54.2473C478.09 56.6895 475.615 59.2609 472.979 61.9613C470.344 64.6608 467.676 67.3603 464.977 70.0599C462.818 72.1678 460.803 74.1106 458.932 75.8884V47.4282H448.59C448.23 47.4282 447.938 47.7203 447.938 48.0806V115.306C447.938 115.666 448.23 115.958 448.59 115.958H458.932V84.8688C461.202 86.3553 463.523 88.0945 465.894 90.0884L465.898 90.0913L465.901 90.0942C468.773 92.4556 471.583 95.0419 474.331 97.8536L474.337 97.8603L474.344 97.8669C477.153 100.612 479.803 103.517 482.294 106.583L482.296 106.586L482.299 106.589C484.789 109.59 486.989 112.588 488.9 115.581L489.14 115.958H500.874C501.376 115.958 501.69 115.416 501.44 114.981L501.3 114.736C499.539 111.672 497.328 108.455 494.672 105.085C492.083 101.72 489.301 98.4206 486.326 95.1869C483.351 91.9528 480.31 88.9116 477.203 86.0636C474.389 83.484 471.7 81.2692 469.137 79.4222C471.317 77.2945 473.628 75.0097 476.07 72.568C478.775 69.8628 481.48 67.1254 484.185 64.3559C486.955 61.5218 489.596 58.7839 492.109 56.1424L492.112 56.1389L492.116 56.1353C494.627 53.4309 496.881 50.9835 498.878 48.7932Z" fill="#0C0C4F"/>
<path fill-rule="evenodd" clip-rule="evenodd" d="M385.525 46.9146C385.165 46.9147 384.873 47.2067 384.873 47.5669V115.347C384.873 115.707 385.165 115.999 385.525 115.999H394.842V91.0787H408.452C409.983 92.9121 411.476 94.8302 412.933 96.8333L412.938 96.8409L412.944 96.8483C415.326 99.9716 417.527 103.23 419.548 106.623L419.55 106.627L419.552 106.63C421.382 109.634 422.979 112.599 424.344 115.528L424.563 115.999H435.588C436.061 115.999 436.376 115.513 436.18 115.083C434.912 112.304 433.538 109.584 432.012 106.933C429.938 103.229 427.663 99.5618 425.188 95.9316C423.773 93.8569 422.328 91.8414 420.853 89.8852C424.965 88.6279 428.219 86.3543 430.572 83.0544L430.574 83.0519C433.399 79.0582 434.799 74.3612 434.799 68.9965C434.799 65.31 434.158 61.9368 432.861 58.8889C431.559 55.7966 429.6 53.2321 426.99 51.2088C424.398 49.1749 421.205 47.8807 417.444 47.3003C416.567 47.1386 415.661 47.0417 414.727 47.0088C413.815 46.9462 413.019 46.9142 412.342 46.9142C409.484 46.9142 406.625 46.9139 403.767 46.9136L403.767 46.9136C397.686 46.913 391.606 46.9126 385.525 46.9146ZM424.643 68.9965C424.643 70.777 424.347 72.529 423.751 74.256C423.169 75.9145 422.239 77.3686 420.954 78.6249C419.736 79.8144 418.13 80.6582 416.095 81.1303C415.45 81.2767 414.756 81.3805 414.01 81.4402L414.009 81.4403L414.008 81.4404C413.275 81.5014 412.627 81.5313 412.061 81.5313H394.842V56.4617H412.061C412.627 56.4617 413.275 56.4915 414.008 56.5525L414.025 56.554L414.043 56.5547C414.768 56.5837 415.44 56.6848 416.063 56.8545L416.083 56.8601L416.104 56.8646C418.131 57.3053 419.732 58.1459 420.947 59.3613L420.95 59.3646L420.954 59.3679C422.237 60.6223 423.167 62.0907 423.751 63.7817L423.751 63.7837L423.752 63.7858C424.346 65.4797 424.643 67.2153 424.643 68.9965Z" fill="#0C0C4F"/>
<path fill-rule="evenodd" clip-rule="evenodd" d="M360.412 106.911L360.413 106.913L360.414 106.916C361.381 109.69 362.413 112.529 363.51 115.431L363.709 115.958H374.738C375.191 115.958 375.506 115.508 375.351 115.083C372.942 108.464 370.51 101.853 368.029 95.2604C365.775 89.2063 363.553 83.4732 361.362 78.0609C359.236 72.6486 357.109 67.4928 354.982 62.5936C352.848 57.6143 350.602 52.6844 348.263 47.7984C348.154 47.5721 347.926 47.4282 347.675 47.4282H338.878C338.627 47.4282 338.398 47.5721 338.29 47.7984C335.95 52.6845 333.705 57.6145 331.571 62.594C329.444 67.4914 327.286 72.6457 325.096 78.0567L325.094 78.0606L325.093 78.0645C322.967 83.4751 320.777 89.207 318.524 95.2601C316.042 101.853 313.61 108.464 311.201 115.083C311.046 115.508 311.361 115.958 311.814 115.958H322.372L322.373 115.958H322.579L322.821 115.698C325.368 112.963 328.215 110.28 331.363 107.648L331.366 107.645L331.369 107.642C334.529 104.944 337.824 102.442 341.253 100.135L341.261 100.13L341.268 100.125C344.646 97.738 348.046 95.5962 351.467 93.6988L351.471 93.6966L351.475 93.6944C352.707 92.9932 353.92 92.3399 355.114 91.7344L357.422 98.327L357.424 98.332L357.424 98.3324C358.452 101.224 359.448 104.084 360.412 106.911ZM348.547 74.4035L348.549 74.4092L348.551 74.4148C349.48 76.7664 350.409 79.1575 351.338 81.588C351.269 81.6187 351.198 81.6504 351.126 81.6832C347.857 83.1722 344.343 85.097 340.586 87.4536C336.989 89.7097 333.42 92.1608 329.88 94.8065L331.379 90.5259C333.362 84.9621 335.345 79.5898 337.328 74.409C339.151 69.7368 341.05 65.2428 343.024 60.9269C344.94 65.2411 346.781 69.7332 348.547 74.4035Z" fill="#0C0C4F"/>
<path d="M313.893 57.1682V48.0806C313.893 47.7203 313.601 47.4282 313.24 47.4282H261.461C261.101 47.4282 260.809 47.7203 260.809 48.0806V57.1682H281.853V115.306C281.853 115.666 282.145 115.958 282.506 115.958H292.196C292.556 115.958 292.848 115.666 292.848 115.306V57.1682H313.893Z" fill="#0C0C4F"/>
<path d="M213.298 115.125L213.295 115.124C209.307 113.424 205.99 110.997 203.36 107.841L203.357 107.836L203.354 107.834C200.751 104.637 199.06 100.869 198.275 96.5494C198.236 96.3333 198.285 96.1105 198.412 95.9314C198.539 95.7524 198.733 95.6321 198.95 95.5979L207.721 94.2156C208.136 94.1502 208.533 94.411 208.637 94.818C209.703 98.9592 211.897 102.174 215.223 104.504C218.599 106.814 222.58 107.981 227.2 107.981C230.197 107.981 232.875 107.518 235.246 106.607C237.644 105.665 239.506 104.344 240.865 102.66C242.202 101.003 242.877 99.0424 242.877 96.7372C242.877 95.3061 242.623 94.1347 242.152 93.1933C242.148 93.1848 242.144 93.1763 242.14 93.1676C241.682 92.1647 241.042 91.327 240.217 90.6446C240.209 90.6381 240.201 90.6314 240.194 90.6246C239.366 89.8854 238.415 89.2606 237.338 88.7518C236.236 88.2312 235.087 87.8021 233.89 87.4646L233.879 87.4615L216.384 82.2653C214.436 81.6811 212.553 80.9506 210.735 80.0738L210.73 80.0714L210.724 80.0687C208.878 79.1455 207.224 78.0051 205.766 76.647L205.762 76.6426L205.759 76.6402C204.281 75.2294 203.109 73.5524 202.242 71.6174L202.24 71.6126C201.358 69.6124 200.931 67.2872 200.931 64.6583C200.931 60.4439 202.02 56.8047 204.235 53.785L204.236 53.7837C206.46 50.7626 209.459 48.4669 213.203 46.8901C216.943 45.3157 221.138 44.5535 225.776 44.586C230.476 44.6184 234.704 45.4615 238.444 47.1339C242.213 48.773 245.339 51.1395 247.807 54.2329C250.313 57.3328 251.984 61.032 252.833 65.3098C252.876 65.5252 252.83 65.7487 252.706 65.9297C252.582 66.1108 252.39 66.2342 252.174 66.2719L243.165 67.8449C242.951 67.8822 242.732 67.8329 242.555 67.7078C242.377 67.5828 242.257 67.3923 242.221 67.1786C241.766 64.5093 240.756 62.2452 239.202 60.3632L239.193 60.3523C237.657 58.4246 235.731 56.9476 233.401 55.9189L233.393 55.9152C231.058 54.854 228.486 54.303 225.666 54.2723L225.665 54.2723C222.962 54.2416 220.546 54.6717 218.404 55.5465C216.256 56.4237 214.58 57.6344 213.344 59.1648L213.339 59.1708C212.126 60.6432 211.523 62.3341 211.523 64.277C211.523 66.2061 212.073 67.6942 213.114 68.8192C214.237 70.001 215.618 70.9551 217.27 71.6768C219.021 72.3955 220.72 72.9877 222.369 73.4544L222.373 73.4555L235.429 77.2198C236.951 77.641 238.689 78.2209 240.641 78.9567C242.684 79.7148 244.654 80.783 246.55 82.1557C248.502 83.5365 250.105 85.38 251.364 87.666C252.658 89.9821 253.278 92.8623 253.278 96.2605C253.278 99.6762 252.588 102.746 251.186 105.451C249.826 108.138 247.916 110.395 245.466 112.216L245.46 112.22C243.024 113.998 240.203 115.34 237.009 116.253C233.813 117.198 230.399 117.667 226.771 117.667C221.816 117.667 217.32 116.825 213.298 115.125Z" fill="#0C0C4F"/>
<defs>
<linearGradient id="paint0_linear_1_52" x1="139.338" y1="54.7662" x2="-66.1649" y2="161.685" gradientUnits="userSpaceOnUse">
<stop stop-color="#EC796B"/>
<stop offset="1" stop-color="#D672EF"/>
</linearGradient>
<linearGradient id="paint1_linear_1_52" x1="128.232" y1="107.043" x2="95.436" y2="110.117" gradientUnits="userSpaceOnUse">
<stop stop-color="#EC796B"/>
<stop offset="1" stop-color="#D672EF"/>
</linearGradient>
</defs>
</svg>
