<svg width="158" height="32" viewBox="0 0 158 32" fill="none" xmlns="http://www.w3.org/2000/svg">
<path fill-rule="evenodd" clip-rule="evenodd" d="M31.4772 16C31.4772 24.7987 24.431 31.9312 15.7389 31.9312C7.04667 31.9312 0 24.7987 0 16C0 7.20133 7.04667 0.068766 15.7389 0.068766C24.431 0.068766 31.4772 7.20133 31.4772 16Z" fill="#29296E"/>
<path fill-rule="evenodd" clip-rule="evenodd" d="M23.0624 11.7406L22.6622 10.489C22.5809 10.2345 22.3824 10.0363 22.13 9.95827L20.8876 9.57147C20.7156 9.51833 20.7142 9.27273 20.8848 9.21673L22.1216 8.8116C22.3726 8.72927 22.5684 8.52833 22.646 8.27287L23.0276 7.0152C23.0801 6.84153 23.3228 6.83967 23.3781 7.0128L23.7783 8.2644C23.8596 8.51847 24.0581 8.71653 24.3105 8.79513L25.553 9.1814C25.725 9.23507 25.7268 9.4802 25.5558 9.5362L24.3189 9.94133C24.0679 10.0237 23.8722 10.2251 23.7946 10.4805L23.413 11.7377C23.3604 11.9119 23.1178 11.9137 23.0624 11.7406Z" fill="#FAFAFA"/>
<path fill-rule="evenodd" clip-rule="evenodd" d="M1.43103 15.7477C1.80521 15.0057 2.5452 14.4467 3.31402 14.0934C4.09074 13.7438 4.94461 13.5292 5.78315 13.4596C7.47602 13.3048 9.12522 13.5913 10.6275 14.0868C11.4014 14.3202 12.094 14.6443 12.8094 14.9718C13.1571 15.1412 13.4838 15.3332 13.8204 15.5186L14.75 16.0639C15.7708 16.6972 16.7604 17.2581 17.69 17.6938C18.622 18.1257 19.4642 18.4179 20.2582 18.5671C21.0521 18.7181 21.859 18.7162 22.8514 18.4857C23.8359 18.2603 24.9436 17.7742 26.1014 17.1508C27.2662 16.5269 28.4608 15.7618 29.8237 15.0142C29.687 16.5767 29.2501 18.0419 28.5678 19.4568C27.8687 20.8547 26.8962 22.2183 25.4786 23.3225C24.0878 24.4358 22.1778 25.2117 20.2335 25.3284C18.2882 25.4615 16.4378 25.0277 14.8634 24.3751C13.283 23.7131 11.9174 22.8431 10.707 21.8828C10.3728 21.6174 10.1934 21.4669 9.94656 21.2556L9.25722 20.6444C8.79289 20.2765 8.34289 19.8365 7.88322 19.4719C6.96609 18.696 6.05879 17.9187 5.06407 17.2449C4.56253 16.9023 4.04518 16.5847 3.45858 16.3034C3.16714 16.1674 2.85756 16.0409 2.52522 15.9411C2.18497 15.8287 1.83914 15.7618 1.43103 15.7477Z" fill="#FF4F0A"/>
<path fill-rule="evenodd" clip-rule="evenodd" d="M1.43103 15.7479C1.62207 14.1401 2.36253 12.6321 3.54922 11.3485C4.72986 10.0772 6.57428 9.09707 8.62089 8.9672C9.63096 8.899 10.6564 9.01287 11.599 9.27727C12.5375 9.5408 13.4169 9.92473 14.2094 10.3769C14.6054 10.6041 14.9759 10.8526 15.345 11.1033L16.3286 11.8571L17.8638 13.0833C18.8604 13.8865 19.8114 14.6294 20.6904 15.243C21.5778 15.8575 22.3336 16.3063 23.0554 16.5693C23.7708 16.8564 24.6744 16.9298 25.869 16.6258C26.4621 16.4875 27.0808 16.2348 27.7408 15.961C28.3972 15.6805 29.0786 15.346 29.8237 15.0143C29.734 15.8227 29.5718 16.6277 29.2636 17.3801C28.9675 18.1427 28.5775 18.889 28.0323 19.5849C27.7534 19.9237 27.4545 20.2643 27.1059 20.5786C26.7573 20.8854 26.371 21.1767 25.9443 21.4321C25.0932 21.9313 24.0836 22.296 23.048 22.4259C22.0124 22.5576 20.9726 22.4917 20.0258 22.2885C19.0738 22.0909 18.2064 21.7723 17.4102 21.4044C15.8233 20.6572 14.4958 19.7181 13.3221 18.7239C12.7327 18.2275 12.18 17.7089 11.6566 17.1825L11.0384 16.5543C10.852 16.3722 10.6638 16.1892 10.4774 16.0217C9.72622 15.3493 9.02902 14.8355 8.26109 14.5151C7.49882 14.1796 6.52314 14.0417 5.32623 14.2685C4.13396 14.4929 2.82596 15.0148 1.43103 15.7479Z" fill="#FAFAFA"/>
<path fill-rule="evenodd" clip-rule="evenodd" d="M7.7209 24.0385C7.7209 24.5141 7.3397 24.8999 6.86977 24.8999C6.39985 24.8999 6.01917 24.5141 6.01917 24.0385C6.01917 23.5627 6.39985 23.1769 6.86977 23.1769C7.3397 23.1769 7.7209 23.5627 7.7209 24.0385Z" fill="#FAFAFA"/>
<path fill-rule="evenodd" clip-rule="evenodd" d="M7.7209 24.0385C7.7209 24.5141 7.3397 24.8999 6.86977 24.8999C6.39985 24.8999 6.01917 24.5141 6.01917 24.0385C6.01917 23.5627 6.39985 23.1769 6.86977 23.1769C7.3397 23.1769 7.7209 23.5627 7.7209 24.0385Z" fill="#FAFAFA"/>
<path fill-rule="evenodd" clip-rule="evenodd" d="M54.9416 16.4349C54.369 16.0571 53.3296 15.5805 51.8236 15.0051C50.3172 14.4296 49.2718 13.913 48.6866 13.4551C48.1018 12.9973 47.809 12.365 47.809 11.5585C47.809 10.7521 48.1055 10.1159 48.6991 9.6496C49.2922 9.18333 50.0745 8.95047 51.0455 8.95047C52.0165 8.95047 52.8067 9.2172 53.4166 9.75033C54.0269 10.2839 54.3318 11.0419 54.3318 12.0248H56.7094C56.7094 10.3366 56.1572 9.0154 55.0537 8.06213C53.9497 7.10887 52.6203 6.6322 51.0641 6.6322C49.5084 6.6322 48.1864 7.07493 47.0996 7.9614C46.0124 8.84787 45.469 10.0383 45.469 11.5336C45.469 12.6929 45.7508 13.6123 46.3155 14.2931C46.6139 14.6541 46.9002 14.9589 47.174 15.2064C47.4482 15.4544 48.0246 15.7946 48.9046 16.227C49.784 16.6599 50.531 16.9516 51.145 17.1026C52.327 17.6164 53.2962 18.0352 53.9148 18.4887C54.5326 18.9423 54.8422 19.5663 54.8422 20.36C54.8422 21.1537 54.5205 21.7946 53.8772 22.2816C53.2344 22.7686 52.3466 23.0123 51.2138 23.0123C50.081 23.0123 49.1574 22.7248 48.4439 22.1494C47.73 21.5739 47.3734 20.7529 47.3734 19.6857H45.0084C45.0084 21.4751 45.616 22.8697 46.8319 23.8691C48.0474 24.8689 49.5144 25.3687 51.2324 25.3687C52.9499 25.3687 54.3774 24.9109 55.5143 23.9952C56.6512 23.0796 57.2132 21.8323 57.2012 20.2527C57.1886 18.6737 56.4356 17.4009 54.9416 16.4349Z" fill="#26296E"/>
<path fill-rule="evenodd" clip-rule="evenodd" d="M70.6847 7.13987H58.9507V9.39833H63.6468V25.0317H65.9639V9.39833H70.6847V7.13987Z" fill="#26296E"/>
<path fill-rule="evenodd" clip-rule="evenodd" d="M76.798 7.13987L70.2773 25.0317H72.78C72.78 25.0317 73.4153 23.0409 73.9307 22.227C76.1707 18.6929 79.8947 18.2619 81.0913 18.2944L83.4787 25.0317H85.9807L79.448 7.13987H76.798ZM75.3767 17.7025L78.1293 9.93473L80.286 16.0213C79.056 16.1126 77.2633 16.4871 75.3767 17.7025Z" fill="#26296E"/>
<path fill-rule="evenodd" clip-rule="evenodd" d="M116.511 7.13987H113.627L106.256 15.2497V7.13987H103.914V25.0317H106.256V16.4476L113.885 25.0317H116.757L108.709 15.8613L116.511 7.13987Z" fill="#26296E"/>
<path fill-rule="evenodd" clip-rule="evenodd" d="M128.134 18.1818L121.244 7.13967H118.594V25.0315H122.082V13.9645L128.947 25.0315H131.597V7.13967H128.134V18.1818Z" fill="#26296E"/>
<path fill-rule="evenodd" clip-rule="evenodd" d="M137.241 17.6453H143.478V14.3516H137.241V10.5211H144.107V7.14H133.753V25.0314H144.23V21.663H137.241V17.6453Z" fill="#26296E"/>
<path fill-rule="evenodd" clip-rule="evenodd" d="M146.02 7.13967V10.5213H150.259V25.0315H153.736V10.5213H158V7.13967H146.02Z" fill="#26296E"/>
<path fill-rule="evenodd" clip-rule="evenodd" d="M96.5867 18.5905C96.2293 18.2565 95.8673 17.9661 95.5047 17.7107C96.644 17.5403 97.872 16.9098 98.6627 15.886C99.384 14.9529 99.6987 13.8647 99.6987 12.6921C99.6987 11.1531 99.16 9.84313 98.084 8.76187C97.0073 7.68067 95.7133 7.14 94.2013 7.14H87.7673V25.0314H90.1087V18.2842C91.3893 18.3143 93.294 18.6413 95.044 20.2787C96.7227 21.8512 97.8827 23.8048 98.48 25.0305H100.967C100.452 23.6763 98.976 20.8273 96.5867 18.5905ZM94.2013 9.37307C95.072 9.37307 95.816 9.69587 96.432 10.34C97.0487 10.9846 97.356 11.7666 97.356 12.6855C97.356 13.6049 97.058 14.4025 96.432 15.0499C95.316 16.2045 92.7367 15.9745 90.178 15.9862C90.1547 15.9857 90.1313 15.9848 90.1087 15.9843V9.37307H94.2013Z" fill="#26296E"/>
</svg>
