<svg width="24" height="24" viewBox="0 0 24 24" fill="none" xmlns="http://www.w3.org/2000/svg">
<path d="M12 0C18.628 0 24 5.37305 24 12C24 18.628 18.628 24 12 24C5.37305 24 0 18.6275 0 12C0 5.37305 5.37305 0 12 0Z" fill="#F5AC37"/>
<path d="M12.4383 12.8474H16.9981C17.0953 12.8474 17.1412 12.8474 17.1482 12.7199C17.1855 12.2561 17.1855 11.7895 17.1482 11.3251C17.1482 11.2349 17.1034 11.1976 17.0057 11.1976H7.93088C7.81856 11.1976 7.78832 11.2349 7.78832 11.3402V12.6751C7.78832 12.8474 7.78832 12.8474 7.96814 12.8474H12.4383ZM16.639 9.63757C16.652 9.60355 16.652 9.56629 16.639 9.53281C16.5629 9.36703 16.4727 9.20881 16.3679 9.06031C16.2102 8.80651 16.0245 8.57268 15.8128 8.36262C15.7129 8.23572 15.5973 8.12178 15.4677 8.02512C14.8186 7.47269 14.047 7.08173 13.2175 6.88517C12.799 6.79121 12.3713 6.74639 11.9426 6.75017H7.91522C7.8029 6.75017 7.78778 6.79499 7.78778 6.89273V9.55495C7.78778 9.66727 7.78778 9.69751 7.93034 9.69751H16.585C16.585 9.69751 16.6601 9.68239 16.6752 9.63757H16.6385H16.639ZM16.639 14.4074C16.5116 14.3934 16.383 14.3934 16.2556 14.4074H7.93844C7.82612 14.4074 7.78832 14.4074 7.78832 14.5576V17.1604C7.78832 17.2803 7.78832 17.3105 7.93844 17.3105H11.7784C11.962 17.3245 12.1456 17.3116 12.3254 17.2732C12.8827 17.2333 13.4308 17.1123 13.9536 16.9131C14.1436 16.8472 14.3272 16.7613 14.5006 16.6582H14.553C15.4532 16.19 16.1843 15.4545 16.6455 14.5516C16.6455 14.5516 16.6979 14.4382 16.639 14.4085V14.4074ZM6.28116 18.66V18.6152V16.8677V16.2753V14.5127C6.28116 14.415 6.28116 14.4004 6.16128 14.4004H4.53371C4.44353 14.4004 4.40627 14.4004 4.40627 14.2805V12.8555H6.14616C6.24336 12.8555 6.28116 12.8555 6.28116 12.728V11.3181C6.28116 11.2279 6.28116 11.2057 6.16128 11.2057H4.53371C4.44353 11.2057 4.40627 11.2057 4.40627 11.0859V9.7661C4.40627 9.68348 4.40627 9.66133 4.52615 9.66133H6.1386C6.25092 9.66133 6.28116 9.66133 6.28116 9.51877V5.47629C6.28116 5.35641 6.28116 5.32617 6.43129 5.32617H12.056C12.4642 5.34237 12.8698 5.38719 13.271 5.46117C14.0977 5.61399 14.8921 5.90938 15.6184 6.33112C16.1001 6.61462 16.5434 6.95699 16.9382 7.35119C17.2352 7.65953 17.503 7.99326 17.7406 8.34858C17.9766 8.70877 18.1726 9.09379 18.3265 9.49609C18.3454 9.60085 18.4459 9.67159 18.5506 9.65377H19.8931C20.0653 9.65377 20.0653 9.65377 20.0729 9.81902V11.0491C20.0729 11.169 20.0281 11.1993 19.9077 11.1993H18.8725C18.7677 11.1993 18.7375 11.1993 18.745 11.3343C18.7861 11.7911 18.7861 12.2496 18.745 12.7064C18.745 12.8339 18.745 12.849 18.8881 12.849H20.0724C20.1247 12.9165 20.0724 12.984 20.0724 13.052C20.0799 13.139 20.0799 13.227 20.0724 13.3139V14.2217C20.0724 14.3491 20.0351 14.3869 19.9222 14.3869H18.5047C18.4059 14.368 18.3098 14.4312 18.2871 14.5295C17.9496 15.407 17.4096 16.1938 16.7119 16.8245C16.457 17.054 16.1892 17.27 15.9095 17.4693C15.6092 17.6421 15.3171 17.8219 15.0093 17.9645C14.4428 18.2193 13.8488 18.4073 13.2391 18.5266C12.6602 18.6303 12.0733 18.6773 11.4841 18.6692H6.279V18.6616L6.28116 18.66Z" fill="#FEFEFD"/>
</svg>
