<svg xmlns="http://www.w3.org/2000/svg" width="42" height="42" viewBox="0 0 24 24">
  <g fill="none">
    <path fill="#0C0C4F" fill-rule="evenodd" d="M4 12a8 8 0 1 0 16 0a8 8 0 0 0-16 0" clip-rule="evenodd"/>
    <path fill="#FAFAFA" fill-rule="evenodd" d="m8.471 10.115l.198-.61a.4.4 0 0 1 .262-.258l.613-.189c.085-.026.086-.146.002-.173l-.61-.197a.4.4 0 0 1-.26-.263l-.188-.613a.09.09 0 0 0-.173-.001l-.197.61a.4.4 0 0 1-.263.259l-.613.188a.09.09 0 0 0-.001.173l.61.197a.4.4 0 0 1 .259.263l.188.613a.09.09 0 0 0 .173.001" clip-rule="evenodd"/>
    <path fill="url(#tokenBrandedStarknet0)" fill-rule="evenodd" d="M18.162 9.76c-.253-.282-.647-.441-1.03-.507a3.5 3.5 0 0 0-1.174.011c-.773.13-1.474.45-2.086.845c-.318.194-.588.418-.87.646c-.134.115-.258.238-.386.359l-.351.35c-.381.398-.757.76-1.12 1.062c-.366.3-.707.527-1.044.685a2.8 2.8 0 0 1-1.164.269c-.465.016-1.015-.067-1.603-.206c-.591-.138-1.212-.334-1.906-.503a5.7 5.7 0 0 0 1.075 1.808c.473.533 1.064 1.019 1.824 1.338c.749.327 1.69.444 2.57.267c.881-.17 1.656-.578 2.281-1.05a8 8 0 0 0 1.563-1.585c.118-.156.18-.243.266-.365l.236-.35c.164-.216.314-.463.476-.677c.319-.45.633-.898.998-1.311c.184-.21.377-.41.606-.603a3 3 0 0 1 .374-.27c.138-.089.285-.159.465-.213" clip-rule="evenodd"/>
    <path fill="#FAFAFA" fill-rule="evenodd" d="M18.162 9.76c-.272-.685-.776-1.262-1.454-1.687a3.57 3.57 0 0 0-2.536-.453c-.458.089-.901.26-1.29.486a5.4 5.4 0 0 0-1.036.79a8 8 0 0 0-.421.454l-.351.447l-.542.72c-.69.926-1.434 2.011-2.655 2.333c-1.198.316-1.718.036-2.45-.08c.134.346.3.681.525.976c.22.301.48.584.804.826a4 4 0 0 0 .528.328q.286.144.616.24c.437.12.93.162 1.406.097a4.2 4.2 0 0 0 1.33-.415a5.6 5.6 0 0 0 1.063-.696a8.5 8.5 0 0 0 1.51-1.66q.307-.432.564-.874l.202-.349c.062-.102.125-.205.189-.3c.256-.384.507-.692.812-.924c.3-.237.72-.412 1.279-.453c.557-.04 1.2.035 1.907.194" clip-rule="evenodd"/>
    <path fill="#EC796B" fill-rule="evenodd" d="M15.147 15.453a.912.912 0 1 0 1.824 0a.912.912 0 0 0-1.824 0" clip-rule="evenodd"/>
    <defs>
      <linearGradient id="tokenBrandedStarknet0" x1="19.915" x2="-10.761" y1="4.703" y2="13.548" gradientUnits="userSpaceOnUse">
        <stop stop-color="#EC796B"/>
        <stop offset="1" stop-color="#D672EF"/>
      </linearGradient>
    </defs>
  </g>
</svg>