<svg width="24" height="23" viewBox="0 0 24 23" fill="none" xmlns="http://www.w3.org/2000/svg">
<path d="M13.4363 12.1163L13.8305 6.70134L15.4392 2.84499H8.55859L10.1672 6.70134L10.5615 12.1163L10.6852 13.8239L10.6938 18.0269H13.301L13.3097 13.8239L13.4363 12.1163Z" fill="url(#paint0_linear_803_12229)"/>
<path d="M22.1644 11.0734L17.2406 9.63803L18.7284 11.8814L16.5068 16.199L19.445 16.1617H23.8133L22.1644 11.0734Z" fill="url(#paint1_linear_803_12229)"/>
<path d="M6.75939 9.63803L1.83565 11.0734L0.198242 16.1617H4.56659L7.49608 16.199L5.2745 11.8814L6.75939 9.63803Z" fill="url(#paint2_linear_803_12229)"/>
<path d="M13.9253 14.8295L13.3037 18.0298L13.7555 18.3392L16.5037 16.199L16.5872 14.0502L13.9253 14.8295Z" fill="url(#paint3_linear_803_12229)"/>
<path d="M7.41895 14.0502L7.49377 16.199L10.242 18.3392L10.6938 18.0298L10.0722 14.8295L7.41895 14.0502Z" fill="url(#paint4_linear_803_12229)"/>
<path d="M23.2081 7.3861L23.9995 3.55553L22.8139 0L13.7549 6.70135L17.1362 9.72398L22.1635 11.0763L23.2455 9.80993L22.7736 9.47185L23.5275 8.7871L22.952 8.33729L23.706 7.76428L23.2081 7.3861Z" fill="url(#paint5_linear_803_12229)"/>
<path d="M0.791367 7.3861L0 3.55553L1.18561 0L10.2446 6.70135L6.86331 9.72398L1.83597 11.0734L0.753957 9.80706L1.2259 9.46899L0.471942 8.78424L1.04748 8.33443L0.293525 7.76142L0.791367 7.3861Z" fill="url(#paint6_linear_803_12229)"/>
<path d="M5.27197 11.8814L7.41873 14.0502L7.49356 16.199L5.27197 11.8814Z" fill="url(#paint7_linear_803_12229)"/>
<path d="M18.7284 11.8814L16.5068 16.199L16.5903 14.0502L18.7284 11.8814Z" fill="url(#paint8_linear_803_12229)"/>
<path d="M16.9462 19.8863L13.7549 18.3392L14.0081 20.4135L13.9793 21.2873L16.9462 19.8863Z" fill="#FF9F5A"/>
<path d="M7.05273 19.8863L10.0196 21.2845L9.9995 20.4106L10.2441 18.3363L7.05273 19.8863Z" fill="#FF9F5A"/>
<path d="M19.4413 16.1617L16.9463 19.8863L22.2844 21.3503L23.8096 16.1617H19.4413Z" fill="url(#paint9_linear_803_12229)"/>
<path d="M0.198242 16.1617L1.71479 21.3503L7.05292 19.8863L4.56659 16.1617H0.198242Z" fill="url(#paint10_linear_803_12229)"/>
<path d="M1.18555 0L10.2445 6.70135L8.82296 2.84499L1.18555 0Z" fill="url(#paint11_linear_803_12229)"/>
<path d="M15.1765 2.84499L13.7549 6.70135L22.8139 0L15.1765 2.84499Z" fill="url(#paint12_linear_803_12229)"/>
<path d="M6.75974 9.63803L5.27197 11.8814L10.5641 12.1163L10.2446 6.70135L6.75974 9.63803Z" fill="url(#paint13_linear_803_12229)"/>
<path d="M17.2399 9.63803L13.755 6.70135L13.4355 12.1163L18.7276 11.8814L17.2399 9.63803Z" fill="url(#paint14_linear_803_12229)"/>
<path d="M7.05273 19.8863L10.2441 18.3392L7.4959 16.199L7.05273 19.8863Z" fill="#9383FA"/>
<path d="M13.7549 18.3392L16.9462 19.8863L16.5031 16.199L13.7549 18.3392Z" fill="#9383FA"/>
<path d="M16.5068 16.199L16.95 19.8863L19.445 16.1617L16.5068 16.199Z" fill="url(#paint15_linear_803_12229)"/>
<path d="M7.4933 16.199L7.05014 19.8863L4.55518 16.1617L7.4933 16.199Z" fill="url(#paint16_linear_803_12229)"/>
<path d="M18.7276 11.8814L13.4355 12.1163L13.9248 14.8295L14.7075 13.1964L16.5895 14.0502L18.7276 11.8814Z" fill="#9C5ADD"/>
<path d="M7.41874 14.0502L9.29212 13.1964L10.0749 14.8295L10.5641 12.1163L5.27197 11.8814L7.41874 14.0502Z" fill="#9C5ADD"/>
<path d="M13.9253 14.8295L13.4361 12.1163L13.3123 13.8239L13.3037 18.0298L13.9253 14.8295Z" fill="url(#paint17_linear_803_12229)"/>
<path d="M10.0752 14.8295L10.6968 18.0298L10.6881 13.8239L10.5644 12.1163L10.0752 14.8295Z" fill="url(#paint18_linear_803_12229)"/>
<path d="M13.9994 21.273L14.011 20.4106L13.775 20.2043H10.2239L9.99657 20.4106L10.0167 21.2844L7.0498 19.8863L8.08578 20.7315L10.1951 22.1869H13.8009L15.9102 20.7315L16.9462 19.8863L13.9994 21.273Z" fill="#DF7554"/>
<path d="M13.7554 18.3392L13.3036 18.0297H10.6964L10.2446 18.3392L10 20.4135L10.2273 20.2072H13.7755L14.0115 20.4135L13.7554 18.3392Z" fill="#161616" stroke="#161616" stroke-width="0.0332187" stroke-miterlimit="10" stroke-linejoin="round"/>
<path d="M14.7075 13.1964L13.9248 14.8295L16.5896 14.0502L14.7075 13.1964Z" fill="#161616"/>
<path d="M9.29233 13.1964L10.0751 14.8295L7.41895 14.0502L9.29233 13.1964Z" fill="#161616"/>
<defs>
<linearGradient id="paint0_linear_803_12229" x1="12.0003" y1="2.84361" x2="12.0003" y2="18.0283" gradientUnits="userSpaceOnUse">
<stop stop-color="#FB7FE4"/>
<stop offset="1" stop-color="#BCABFB"/>
</linearGradient>
<linearGradient id="paint1_linear_803_12229" x1="20.1589" y1="9.63826" x2="20.1589" y2="16.1983" gradientUnits="userSpaceOnUse">
<stop stop-color="#B65FE5"/>
<stop offset="1" stop-color="#ADA2FC"/>
</linearGradient>
<linearGradient id="paint2_linear_803_12229" x1="3.84589" y1="9.63826" x2="3.84589" y2="16.1983" gradientUnits="userSpaceOnUse">
<stop stop-color="#B65FE5"/>
<stop offset="1" stop-color="#ADA2FC"/>
</linearGradient>
<linearGradient id="paint3_linear_803_12229" x1="13.3041" y1="16.1936" x2="16.5902" y2="16.1936" gradientUnits="userSpaceOnUse">
<stop stop-color="#C8A8F7"/>
<stop offset="1" stop-color="#BAAAFB"/>
</linearGradient>
<linearGradient id="paint4_linear_803_12229" x1="7.41961" y1="16.1936" x2="10.6962" y2="16.1936" gradientUnits="userSpaceOnUse">
<stop stop-color="#C8A8F7"/>
<stop offset="1" stop-color="#BAAAFB"/>
</linearGradient>
<linearGradient id="paint5_linear_803_12229" x1="15.4326" y1="9.59282" x2="25.1187" y2="3.97582" gradientUnits="userSpaceOnUse">
<stop stop-color="#541758"/>
<stop offset="0.4286" stop-color="#4F206C"/>
<stop offset="0.62" stop-color="#4D2577"/>
<stop offset="1" stop-color="#8B45B6"/>
</linearGradient>
<linearGradient id="paint6_linear_803_12229" x1="6.82295" y1="9.54154" x2="-1.5135" y2="2.51555" gradientUnits="userSpaceOnUse">
<stop stop-color="#541758"/>
<stop offset="0.4286" stop-color="#4F206C"/>
<stop offset="0.62" stop-color="#4D2577"/>
<stop offset="1" stop-color="#8B45B6"/>
</linearGradient>
<linearGradient id="paint7_linear_803_12229" x1="5.27269" y1="14.0398" x2="7.49473" y2="14.0398" gradientUnits="userSpaceOnUse">
<stop stop-color="#BA86F3"/>
<stop offset="0.5281" stop-color="#B786F4"/>
<stop offset="0.8987" stop-color="#AE86F5"/>
<stop offset="1" stop-color="#AA86F6"/>
</linearGradient>
<linearGradient id="paint8_linear_803_12229" x1="16.5057" y1="14.0398" x2="18.7277" y2="14.0398" gradientUnits="userSpaceOnUse">
<stop stop-color="#BA86F3"/>
<stop offset="0.5281" stop-color="#B786F4"/>
<stop offset="0.8987" stop-color="#AE86F5"/>
<stop offset="1" stop-color="#AA86F6"/>
</linearGradient>
<linearGradient id="paint9_linear_803_12229" x1="20.3793" y1="16.1608" x2="20.3793" y2="21.3506" gradientUnits="userSpaceOnUse">
<stop stop-color="#906EF7"/>
<stop offset="1" stop-color="#575ADE"/>
</linearGradient>
<linearGradient id="paint10_linear_803_12229" x1="3.62463" y1="16.1608" x2="3.62463" y2="21.3506" gradientUnits="userSpaceOnUse">
<stop stop-color="#906EF7"/>
<stop offset="1" stop-color="#575ADE"/>
</linearGradient>
<linearGradient id="paint11_linear_803_12229" x1="1.18628" y1="3.3504" x2="10.244" y2="3.3504" gradientUnits="userSpaceOnUse">
<stop stop-color="#BB65ED"/>
<stop offset="1" stop-color="#E560E3"/>
</linearGradient>
<linearGradient id="paint12_linear_803_12229" x1="13.7555" y1="3.3504" x2="22.8132" y2="3.3504" gradientUnits="userSpaceOnUse">
<stop stop-color="#E560E3"/>
<stop offset="0.2946" stop-color="#DE61E5"/>
<stop offset="0.7098" stop-color="#CC63E9"/>
<stop offset="1" stop-color="#BB65ED"/>
</linearGradient>
<linearGradient id="paint13_linear_803_12229" x1="7.91843" y1="6.70081" x2="7.91843" y2="12.1159" gradientUnits="userSpaceOnUse">
<stop stop-color="#DC69E6"/>
<stop offset="1" stop-color="#C289F3"/>
</linearGradient>
<linearGradient id="paint14_linear_803_12229" x1="16.0812" y1="6.70081" x2="16.0812" y2="12.1159" gradientUnits="userSpaceOnUse">
<stop stop-color="#DC69E6"/>
<stop offset="1" stop-color="#C289F3"/>
</linearGradient>
<linearGradient id="paint15_linear_803_12229" x1="17.9745" y1="11.4119" x2="17.9745" y2="21.0684" gradientUnits="userSpaceOnUse">
<stop stop-color="#6848BA"/>
<stop offset="0.3363" stop-color="#6356D5"/>
</linearGradient>
<linearGradient id="paint16_linear_803_12229" x1="6.02568" y1="16.1607" x2="6.02568" y2="19.8865" gradientUnits="userSpaceOnUse">
<stop stop-color="#6848BA"/>
<stop offset="0.3363" stop-color="#6356D5"/>
</linearGradient>
<linearGradient id="paint17_linear_803_12229" x1="13.6149" y1="18.0284" x2="13.6149" y2="12.1159" gradientUnits="userSpaceOnUse">
<stop stop-color="#BA86F3"/>
<stop offset="0.5281" stop-color="#B786F4"/>
<stop offset="0.8987" stop-color="#AE86F5"/>
<stop offset="1" stop-color="#AA86F6"/>
</linearGradient>
<linearGradient id="paint18_linear_803_12229" x1="10.0749" y1="15.0721" x2="10.6963" y2="15.0721" gradientUnits="userSpaceOnUse">
<stop stop-color="#BA86F3"/>
<stop offset="0.5281" stop-color="#B786F4"/>
<stop offset="0.8987" stop-color="#AE86F5"/>
<stop offset="1" stop-color="#AA86F6"/>
</linearGradient>
</defs>
</svg>
